<svg xmlns="http://www.w3.org/2000/svg" viewBox="0 0 67.14 57.087500000000006" x="0px" y="0px"><title>Fichier 5prev</title><g data-name="Calque 2"><g data-name="Calque 1"><path d="M40.31,2.87V10a2.87,2.87,0,0,0,2.86,2.87h21.1a2.87,2.87,0,0,1,2.87,2.86V30a2.88,2.88,0,0,1-2.87,2.87H43.17a2.86,2.86,0,0,0-2.86,2.86v7.1A2.87,2.87,0,0,1,36,45.29l-34.58-20a2.86,2.86,0,0,1,0-5L36,.39A2.87,2.87,0,0,1,40.31,2.87Z"/></g></g><text x="0" y="60.67" fill="#000000" font-size="5px" font-weight="bold" font-family="'Helvetica Neue', Helvetica, Arial-Unicode, Arial, Sans-serif">Created by Poups</text><text x="0" y="65.67" fill="#000000" font-size="5px" font-weight="bold" font-family="'Helvetica Neue', Helvetica, Arial-Unicode, Arial, Sans-serif">from the Noun Project</text></svg>